# xmcd
#
# Track frame offsets: 
#        150
#        14158
#        22983
#        38236
#        53817
#        68167
#        83597
#        99954
#        114628
#        134985
#        148323
#        161068
#        171020
#
# Disc length: 2459 seconds
#
# Revision: 0
# Processed by: cddbd v1.5.2PL0 Copyright (c) Steve Scherf et al.
# Submitted via: ExactAudioCopy v0.99pb3
#
DISCID=b609990d
DTITLE=O Melhor Do Globo Rural - O Melhor Do Globo Rural - Disc 3
DYEAR=2007
DGENRE=Sertanejo
TTITLE0=A Gostosona  - Teodoro and Sampaio 
TTITLE1=Malvada Pinga  - Inezita Barroso E Roberto Corrêa 
TTITLE2=Canarinho Prisioneiro  - Chico Rey and Paraná 
TTITLE3=Contrato Vencido  - João Mulato and Pardinho 
TTITLE4=Chora Peito  - Chrystian and Ralf 
TTITLE5=Fala Pra Mim  - Rouxinol and Sabiá 
TTITLE6=Mágoa De Boiadeiro  - Lourenço and Lourival 
TTITLE7=Cabocla Tereza  - Jair Rodrigues  - Rolando Boldrin 
TTITLE8=Peixe Vivo  - Inezita Barroso E Roberto Corrêa 
TTITLE9=Criado Mudo  - Rouxinol and Sabiá 
TTITLE10=Aline  - João Mineiro and Mariano 
TTITLE11=Cinco Vezes Por Noite  - Léo Canhoto and Robertinho 
TTITLE12=Mina De Ouro  - João Mulato and Pardinho 
EXTD=
EXTT0=
EXTT1=
EXTT2=
EXTT3=
EXTT4=
EXTT5=
EXTT6=
EXTT7=
EXTT8=
EXTT9=
EXTT10=
EXTT11=
EXTT12=
PLAYORDER=
